<svg width="24" height="24" viewBox="0 0 24 24" fill="none" xmlns="http://www.w3.org/2000/svg">
<g clip-path="url(#clip0_14_2)">
<path d="M11.455 9.985C10.036 10.402 8.345 10.617 6.388 10.631C6.793 8.977 7.906 7.601 9.391 6.847C10.168 7.863 10.855 8.91 11.455 9.985ZM12.42 11.915C12.296 11.635 12.166 11.356 12.029 11.08C10.407 11.59 8.468 11.849 6.225 11.852L6.217 12C6.217 13.404 6.721 14.692 7.557 15.695C8.823 13.794 10.448 12.531 12.42 11.915ZM8.45 16.556C10.019 17.781 12.121 18.145 14.074 17.392C13.822 15.904 13.424 14.452 12.884 13.04C11.065 13.582 9.599 14.754 8.45 16.556ZM15.525 7.426C14.548 6.672 13.328 6.217 12 6.217C11.51 6.217 11.036 6.285 10.582 6.401C11.346 7.429 12.023 8.487 12.617 9.573C13.853 9.049 14.821 8.333 15.525 7.426ZM24 12C24 18.627 18.627 24 12 24C5.373 24 0 18.627 0 12C0 5.373 5.373 0 12 0C18.627 0 24 5.373 24 12ZM19 12C19 8.134 15.865 5 12 5C8.135 5 5 8.134 5 12C5 15.866 8.135 19 12 19C15.865 19 19 15.866 19 12ZM13.176 10.651C13.333 10.975 13.481 11.302 13.623 11.631C14.883 11.414 16.264 11.427 17.766 11.673C17.693 10.381 17.2 9.199 16.412 8.27C15.605 9.275 14.522 10.068 13.176 10.651ZM14.09 12.783C14.579 14.092 14.955 15.434 15.209 16.806C16.521 15.926 17.45 14.522 17.706 12.897C16.389 12.669 15.184 12.629 14.09 12.783Z" fill="#2F435F"/>
</g>
<defs>
<clipPath id="clip0_14_2">
<rect width="24" height="24" fill="white"/>
</clipPath>
</defs>
</svg>
